<svg width="13" height="17" viewBox="0 0 13 17" fill="none" xmlns="http://www.w3.org/2000/svg">
<path d="M11.44 7.4375C11.6567 7.4375 11.8598 7.479 12.0494 7.56201C12.239 7.64502 12.4042 7.75846 12.545 7.90234C12.6858 8.04622 12.7969 8.21501 12.8781 8.40869C12.9594 8.60238 13 8.8099 13 9.03125V12.2188C13 12.8773 12.8781 13.4971 12.6344 14.0781C12.3906 14.6592 12.0548 15.1655 11.6269 15.5972C11.199 16.0288 10.7033 16.3691 10.14 16.6182C9.57667 16.8672 8.97 16.9945 8.32 17C7.54 17 6.81417 16.8478 6.1425 16.5435C5.47083 16.2391 4.85875 15.8075 4.30625 15.2485L0.47125 11.3306C0.319583 11.1756 0.203125 10.9958 0.121875 10.791C0.040625 10.5863 0 10.376 0 10.1602C0 9.92773 0.0433333 9.71191 0.13 9.5127C0.216667 9.31348 0.333125 9.13639 0.479375 8.98145C0.625625 8.8265 0.79625 8.71029 0.99125 8.63281C1.18625 8.55534 1.3975 8.51107 1.625 8.5C2.06917 8.5 2.45104 8.66325 2.77062 8.98975L3.64 9.86963V7.08057C3.32042 6.92562 3.03333 6.73193 2.77875 6.49951C2.52417 6.26709 2.3075 6.00423 2.12875 5.71094C1.95 5.41764 1.80917 5.10221 1.70625 4.76465C1.60333 4.42708 1.55458 4.07845 1.56 3.71875C1.56 3.2041 1.65479 2.72266 1.84437 2.27441C2.03396 1.82617 2.29396 1.4305 2.62437 1.0874C2.95479 0.744303 3.33937 0.478678 3.77812 0.290527C4.21688 0.102376 4.69083 0.00553385 5.2 0C5.70375 0 6.175 0.0968424 6.61375 0.290527C7.0525 0.484212 7.43979 0.749837 7.77562 1.0874C8.11146 1.42497 8.37146 1.81787 8.55562 2.26611C8.73979 2.71436 8.83458 3.19857 8.84 3.71875C8.84 4.2334 8.73979 4.72591 8.53937 5.19629C8.33896 5.66667 8.05458 6.07894 7.68625 6.43311C7.87583 6.48291 8.04646 6.56592 8.19812 6.68213C8.34979 6.79834 8.4825 6.94222 8.59625 7.11377C8.84 6.97542 9.09458 6.90625 9.36 6.90625C9.63083 6.90625 9.88271 6.96989 10.1156 7.09717C10.3485 7.22445 10.5354 7.40706 10.6762 7.64502C10.92 7.50667 11.1746 7.4375 11.44 7.4375ZM2.6 3.71875C2.6 4.13379 2.69208 4.52946 2.87625 4.90576C3.06042 5.28206 3.315 5.59473 3.64 5.84375V3.71875C3.64 3.4974 3.68062 3.28988 3.76187 3.09619C3.84312 2.90251 3.95417 2.73372 4.095 2.58984C4.23583 2.44596 4.40104 2.33252 4.59062 2.24951C4.78021 2.1665 4.98333 2.125 5.2 2.125C5.41667 2.125 5.61979 2.1665 5.80937 2.24951C5.99896 2.33252 6.16417 2.44596 6.305 2.58984C6.44583 2.73372 6.55687 2.90251 6.63812 3.09619C6.71937 3.28988 6.76 3.4974 6.76 3.71875V5.84375C7.085 5.59473 7.33958 5.28206 7.52375 4.90576C7.70792 4.52946 7.8 4.13379 7.8 3.71875C7.8 3.35352 7.73229 3.01042 7.59687 2.68945C7.46146 2.36849 7.27458 2.08903 7.03625 1.85107C6.79792 1.61312 6.52167 1.4222 6.2075 1.27832C5.89333 1.13444 5.5575 1.0625 5.2 1.0625C4.8425 1.0625 4.50667 1.13167 4.1925 1.27002C3.87833 1.40837 3.60208 1.59928 3.36375 1.84277C3.12542 2.08626 2.93854 2.36849 2.80312 2.68945C2.66771 3.01042 2.6 3.35352 2.6 3.71875ZM11.96 9.03125C11.96 8.88737 11.9085 8.76286 11.8056 8.65771C11.7027 8.55257 11.5808 8.5 11.44 8.5C11.2558 8.5 11.1285 8.55257 11.0581 8.65771C10.9877 8.76286 10.9444 8.8929 10.9281 9.04785C10.9119 9.2028 10.9092 9.37435 10.92 9.5625C10.9308 9.75065 10.9308 9.91943 10.92 10.0688C10.9092 10.2183 10.8658 10.3511 10.79 10.4673C10.7142 10.5835 10.5842 10.6361 10.4 10.625C10.1996 10.625 10.0642 10.5614 9.99375 10.4341C9.92333 10.3068 9.88 10.1408 9.86375 9.93604C9.8475 9.73128 9.85292 9.51823 9.88 9.29688C9.90708 9.07552 9.9125 8.86247 9.89625 8.65771C9.88 8.45296 9.83937 8.28971 9.77437 8.16797C9.70937 8.04622 9.57125 7.97982 9.36 7.96875C9.17583 7.96875 9.04854 8.02132 8.97812 8.12646C8.90771 8.23161 8.86438 8.36165 8.84812 8.5166C8.83187 8.67155 8.82917 8.8431 8.84 9.03125C8.85083 9.2194 8.85083 9.38818 8.84 9.5376C8.82917 9.68701 8.78583 9.81982 8.71 9.93604C8.63417 10.0522 8.50417 10.1048 8.32 10.0938C8.11958 10.0938 7.98417 10.0301 7.91375 9.90283C7.84333 9.77555 7.8 9.60954 7.78375 9.40479C7.7675 9.20003 7.77292 8.98698 7.8 8.76562C7.82708 8.54427 7.8325 8.33122 7.81625 8.12646C7.8 7.92171 7.75937 7.75846 7.69437 7.63672C7.62937 7.51497 7.49125 7.44857 7.28 7.4375C7.09583 7.4375 6.96854 7.49007 6.89812 7.59521C6.82771 7.70036 6.78437 7.8304 6.76812 7.98535C6.75187 8.1403 6.74917 8.31185 6.76 8.5C6.77083 8.68815 6.77083 8.85693 6.76 9.00635C6.74917 9.15576 6.70583 9.28857 6.63 9.40479C6.55417 9.521 6.42417 9.57357 6.24 9.5625C6.09917 9.5625 5.97729 9.50993 5.87437 9.40479C5.77146 9.29964 5.72 9.17513 5.72 9.03125V3.71875C5.72 3.57487 5.66854 3.45036 5.56562 3.34521C5.46271 3.24007 5.34083 3.1875 5.2 3.1875C5.05917 3.1875 4.93729 3.24007 4.83437 3.34521C4.73146 3.45036 4.68 3.57487 4.68 3.71875V10.2515C4.68 10.3787 4.65833 10.495 4.615 10.6001C4.57167 10.7052 4.50937 10.8021 4.42812 10.8906C4.34687 10.9792 4.25208 11.0428 4.14375 11.0815C4.03542 11.1203 3.92167 11.1452 3.8025 11.1562C3.68333 11.1562 3.56958 11.1341 3.46125 11.0898C3.35292 11.0456 3.25271 10.9792 3.16062 10.8906L2.03125 9.73682C1.9175 9.62061 1.78208 9.5625 1.625 9.5625C1.46792 9.5625 1.3325 9.62061 1.21875 9.73682C1.105 9.85303 1.04542 9.99414 1.04 10.1602C1.04 10.3206 1.09687 10.459 1.21062 10.5752L5.04562 14.5015C5.50062 14.9663 5.99896 15.3205 6.54062 15.564C7.08229 15.8075 7.67542 15.932 8.32 15.9375C8.82375 15.9375 9.295 15.8407 9.73375 15.647C10.1725 15.4533 10.5571 15.1877 10.8875 14.8501C11.2179 14.5125 11.4779 14.1196 11.6675 13.6714C11.8571 13.2231 11.9546 12.7389 11.96 12.2188V9.03125Z" fill="#6B4D07"/>
</svg>
