<svg width="42" height="44" viewBox="0 0 42 44" fill="none" xmlns="http://www.w3.org/2000/svg">
<path d="M0.5 42.75H0V43.75H0.5V43.25V42.75ZM41.433 3C41.5711 2.76085 41.4891 2.45506 41.25 2.31699L37.3529 0.0669873C37.1137 -0.071084 36.8079 0.0108538 36.6699 0.25C36.5318 0.489146 36.6137 0.794942 36.8529 0.933013L40.317 2.93301L38.317 6.39711C38.1789 6.63626 38.2609 6.94206 38.5 7.08013C38.7391 7.2182 39.0449 7.13626 39.183 6.89711L41.433 3ZM0.5 43.25V43.75C5.55053 43.75 9.54676 41.4237 12.9518 37.9303C16.3451 34.4489 19.1855 29.7736 21.9332 25.0082C24.6935 20.2209 27.3596 15.3443 30.4274 11.3614C33.4926 7.38176 36.9084 4.36397 41.1294 3.23296L41 2.75L40.8706 2.26704C36.3416 3.48058 32.7574 6.69757 29.6351 10.7512C26.5154 14.8017 23.8065 19.7571 21.0668 24.5087C18.3145 29.2821 15.5299 33.8526 12.2357 37.2323C8.95324 40.5999 5.19947 42.75 0.5 42.75V43.25Z" fill="#AC111C"/>
</svg>
